<?xml version="1.0" encoding="UTF-8"?>
<svg id="Layer_2" data-name="Layer 2" xmlns="http://www.w3.org/2000/svg" viewBox="0 0 71.61 77.23">
  <defs>
    <style>
      .cls-1 {
        fill: #ede8e8;
      }

      .cls-2 {
        fill: #3d3b3b;
      }
    </style>
  </defs>
  <g id="Layer_1-2" data-name="Layer 1">
    <g>
      <path class="cls-2" d="m70.72,6.43c-.47-2.44.44-6.05-1.4-5.54-4.69,1.32-5.07,7.04-5.08,7.16,0,0,0,0,0,0,0,0-.17-2.33-3.15-3.27-2.99-.94-3.89.53-3.89.53,0,0-.13-.47-.31-.94-.19-.47-1.74-2.13-3.13-2.81-.49-.25-1.17-.4-1.91-.45-.13-.01-.27-.02-.41-.02-.01,0-.03,0-.03,0-1.24-.02-1.75.71-2.65,1.33-1.54,1.08-4.07,4.06-4.08,4.08,0-.04.13-2.51-.2-3.34-.02-.05-.04-.1-.07-.15-.37-.77-1.25-1.5-3.5-2.19-2.39-.74-4.23.94-5.81,2.4-.78.72-1.69,2.02-2.4,3.15-.68,1.08-1.19,2-1.26,2.12,0,0,0,.01,0,.01,0-.05-.08-1.69-.52-2.24-.44-.54-1.14-1.16-2.18-1.38-.04-.01-.09-.02-.13-.03-.1-.02-.2-.03-.29-.05-.93-.18-1.57-.34-2.91.42-.01,0-.02.01-.04.02-1.31.68-4.34,5.15-6.07,8.35-1.15,2.12-2.03,3.99-2.2,4.54-.41,1.38-1.87,6.53-2.46,10.2-.6,3.68-3.99,19.23-5.08,23.57-1.08,4.33-8.92,14.43-8.92,14.43l26.88,10.24s6.13-9.93,6.34-10.18c.21-.25,5.97-6.34,10.35-10.85,4.15-4.27,17.86-20.06,22.05-25.06,2.98-3.57,4.52-7.54,4.52-8.57s.13-3.97.07-7.29c-.03-1.84.35-5.76-.12-8.21Z"/>
      <g>
        <path class="cls-1" d="m31.45,9.16c-.36,0-.65-.29-.65-.65,0-.1.03-.21.07-.3.44-.8.86-1.51,1.29-2.18.97-1.53,1.81-2.64,2.51-3.28,1.64-1.51,3.69-3.39,6.44-2.54,2.28.7,3.51,1.54,3.97,2.72.17.42.22,1.11.24,1.88.89-.98,2.14-2.26,3.07-2.91.2-.14.37-.28.54-.42.64-.52,1.3-1.07,2.48-1.03.02,0,.05,0,.07,0,.14,0,.28,0,.41.02.84.06,1.59.24,2.15.52,1.44.71,3.16,2.46,3.44,3.15.01.03.02.06.04.09.71-.38,1.9-.64,3.75-.05,3.37,1.05,3.6,3.72,3.61,3.84.03.36-.24.67-.6.69-.34.03-.67-.24-.69-.6,0-.07-.2-1.91-2.7-2.69-2.4-.76-3.12.22-3.15.26-.14.21-.41.32-.65.28-.25-.04-.45-.22-.52-.46,0-.01-.12-.44-.29-.87-.15-.33-1.54-1.85-2.81-2.47-.41-.2-1-.34-1.67-.39-.15-.01-.28,0-.44-.02-.69,0-1.06.3-1.62.75-.19.15-.39.32-.62.47-1.46,1.02-3.94,3.94-3.96,3.97-.17.21-.46.28-.72.19-.25-.09-.42-.34-.42-.61-.01-.06-.01-.3,0-.63,0-.61.03-2.04-.14-2.47-.19-.48-.73-1.21-3.15-1.96-2.05-.63-3.64.84-5.18,2.26-.6.56-1.39,1.6-2.29,3.02-.28.45-.72,1.16-1.21,2.05h0c-.1.23-.33.39-.59.39Z"/>
        <path class="cls-1" d="m27.52,77.23c-.08,0-.16-.01-.23-.04L.42,66.94c-.19-.07-.34-.23-.39-.43-.05-.2-.01-.41.11-.57.08-.1,7.77-10.04,8.81-14.19,1.03-4.11,4.46-19.81,5.06-23.52.65-4.01,2.3-9.65,2.48-10.28.2-.66,1.14-2.62,2.25-4.66,1.62-2.99,4.76-7.8,6.35-8.61.32-.16.71-.04.87.28.16.32.04.71-.28.87-1.01.52-3.83,4.45-5.8,8.08-1.14,2.11-2,3.94-2.15,4.42-.18.62-1.81,6.19-2.44,10.12-.62,3.83-4.02,19.39-5.09,23.63-.95,3.8-6.7,11.6-8.51,13.98l25.57,9.74c1.97-3.19,5.91-9.55,6.11-9.79.23-.27,5.96-6.34,10.38-10.89,4.04-4.15,18.84-20.98,22-25.01.22-.28.63-.33.91-.11.28.22.33.63.11.91-3.17,4.05-18.04,20.95-22.09,25.12-4.28,4.4-10.05,10.51-10.32,10.81-.22.31-3.88,6.21-6.28,10.1-.12.2-.33.31-.55.31Z"/>
        <path class="cls-1" d="m19.31,14.24c-.1,0-.21-.03-.31-.08-.31-.17-.43-.56-.26-.88,1.6-2.95,4.77-7.71,6.32-8.6,1.52-.88,2.34-.72,3.29-.54l.38.07c1.04.17,1.97.74,2.7,1.63.54.68.65,2.18.67,2.63.02.36-.26.66-.62.67-.32,0-.66-.26-.67-.62-.03-.71-.2-1.64-.39-1.88-.53-.65-1.17-1.05-1.91-1.17l-.41-.08c-.84-.16-1.3-.25-2.4.39-1.03.59-3.97,4.68-5.83,8.09-.12.22-.34.34-.57.34Z"/>
        <path class="cls-1" d="m44.68,7.16s-.02,0-.04,0c-.36-.02-.63-.32-.61-.68.05-.98.04-2.58-.15-3.07-.19-.49-.73-1.22-3.15-1.96-2.05-.63-3.64.84-5.18,2.26-.6.56-1.39,1.6-2.29,3.02-.19.3-.59.39-.89.2-.3-.19-.39-.59-.2-.89.97-1.53,1.81-2.64,2.51-3.28,1.64-1.51,3.68-3.39,6.44-2.54,2.28.7,3.51,1.54,3.97,2.72.36.91.26,3.17.24,3.61-.02.34-.3.61-.64.61Z"/>
        <path class="cls-1" d="m54.35,10.18c-.13,0-.26-.04-.38-.12-.29-.21-.36-.61-.15-.9.88-1.24,2.22-3.24,2.68-3.94-.05-.16-.12-.38-.21-.6-.15-.33-1.54-1.85-2.81-2.47-.4-.2-.96-.33-1.61-.38-.12,0-.27,0-.48-.02,0,0-.02,0-.03,0-.69,0-1.06.3-1.62.75-.19.15-.39.32-.62.47-1.46,1.02-3.94,3.94-3.96,3.97-.17.21-.46.28-.72.19-.25-.09-.42-.34-.42-.61-.04-.28.11-.54.35-.65.64-.74,2.65-3.01,4.01-3.96.2-.14.37-.28.54-.42.64-.52,1.3-1.07,2.48-1.03.04,0,.07,0,.11.01.12,0,.2.01.24.01.04,0,.08,0,.12,0,.85.06,1.6.24,2.16.52,1.44.71,3.16,2.46,3.44,3.15.2.51.34,1.02.34,1.02.05.18.02.37-.08.52-.02.03-1.78,2.7-2.87,4.23-.13.18-.33.27-.53.27Z"/>
        <path class="cls-1" d="m66.25,31.14c-.18,0-.35-.07-.48-.21-.24-.26-.22-.67.04-.91,3.28-2.98,4.31-7.17,4.31-8.09,0-.31.01-.8.03-1.43.03-1.41.09-3.55.05-5.85,0-.55.02-1.28.05-2.11.07-1.93.16-4.33-.16-5.99-.17-.88-.17-1.88-.17-2.76,0-.79,0-2.1-.25-2.3,0,0-.05,0-.17.03-4.03,1.13-4.56,5.98-4.6,6.53.04.33.18,1.83.09,3.57-.11,1.93-.53,4.75-1.38,6.9-.79,1.99-2.09,6.68-2.11,6.73-.09.34-.45.55-.8.45-.34-.1-.55-.45-.45-.8.05-.2,1.33-4.81,2.15-6.86.8-2.01,1.2-4.75,1.29-6.49.09-1.82-.09-3.39-.09-3.41,0-.04,0-.08,0-.11.01-.26.42-6.31,5.55-7.75.63-.18,1.05,0,1.3.18.75.57.75,1.79.76,3.33,0,.87,0,1.77.15,2.52.35,1.8.25,4.28.18,6.28-.03.8-.06,1.51-.05,2.04.04,2.33-.01,4.48-.05,5.9-.01.61-.03,1.09-.03,1.4,0,1.22-1.16,5.8-4.73,9.05-.12.11-.28.17-.44.17Z"/>
      </g>
    </g>
  </g>
</svg>