<?xml version="1.0" encoding="UTF-8"?>
<svg id="Layer_2" data-name="Layer 2" xmlns="http://www.w3.org/2000/svg" viewBox="0 0 45.24 116.69">
  <defs>
    <style>
      .cls-1 {
        fill: #ede8e8;
      }

      .cls-2 {
        fill: #3d3b3b;
      }
    </style>
  </defs>
  <g id="Layer_1-2" data-name="Layer 1">
    <g>
      <path class="cls-2" d="m44.43,76.27c-.39-1.86-.55-11.36-1.78-13.67-1.22-2.31-4.97-1.76-5.05-1.97-.14-.34-.12-.56-.18-1.09-.05-.53.02-11.36.85-17,.83-5.64.03-20.92-.19-23.09-.22-2.17-1.85-13.58-5.74-13.58s-2.14,8.08-2.37,9.36-.59,17.01-1.53,21.15c-.94,4.14-1.16,14.95-1.94,15.34,0,0-.9-2.66-1.1-6.11s-.02-7.06-.44-10.34c-.42-3.28-.06-17.59,0-20.67.06-3.08-1.03-6.84-1.56-9.17-.77-3.4-4.66-6.33-6.11-3.85-.91,1.57-1.04,15.39-.91,19.28.12,3.89-.83,12.67-.83,15.39s.16,5.44-.04,8.52c0,0-.72-3.03-4.02-3.28-3.12-.23-4.14,1.71-4.97,3.71-.74,1.79-.53,3.17-.38,6.32-.1,0-.21.02-.34.04-.19.03-.41.07-.66.12-.25.05-.53.12-.84.21-.16.04-.32.09-.49.15-.17.05-.35.11-.54.18-.29.1-.55.26-.78.44-.23.19-.42.41-.59.66-.84,1.25-1,3.15-1.11,4.37-.02.23-.04.44-.06.61,0,.05-.01.12-.02.2,0,.01,0,.02,0,.04-.01.16-.02.37-.03.62-.05,1.7-.02,5.28,0,9.25h0c.01,2.57.02,5.29,0,7.79-.05,7.22,5.43,21.99,4.82,25.37s-4.22,10.89-4.22,10.89l24.34,3.6s.97-2.95,2.17-5.45c1.2-2.5,3.06-4.69,4.56-5.94,1.5-1.25,10.34-15.15,11.25-18.32.05-.17.1-.35.15-.54h0c.55-2.18.84-5.03.85-7.17,0-.97-.05-1.8-.17-2.35Z"/>
      <g>
        <path class="cls-1" d="m25.62,116.69s-.06,0-.09,0l-24.34-3.6c-.2-.03-.38-.16-.48-.34-.1-.18-.1-.4-.01-.58.04-.07,3.58-7.46,4.17-10.73.26-1.45-.81-5.61-1.95-10.02C1.55,86.12,0,80.11.03,76.18c.02-2.49,0-5.22,0-7.78v-1.61c-.03-4.3-.05-7.7.05-8.58.02-.18.04-.4.06-.65.16-1.78.45-5.09,2.9-5.96,1.52-.54,2.56-.7,3.17-.75.35-.04.67.24.69.59.03.36-.24.67-.59.69-.53.04-1.45.19-2.83.68-1.66.59-1.9,3.26-2.04,4.85-.02.26-.04.5-.07.69-.1.8-.08,4.33-.05,8.42v1.61c.02,2.57.03,5.3.01,7.8-.03,3.76,1.5,9.69,2.85,14.92,1.27,4.94,2.28,8.84,1.97,10.57-.51,2.81-2.95,8.23-3.9,10.27l22.94,3.39c.34-.96,1.11-3.1,2.02-5.01,1.31-2.73,3.3-4.97,4.73-6.16,1.29-1.08,10.12-14.83,11.04-18.01l.14-.52c.79-3.12,1.02-7.6.68-9.22-.14-.65-.24-2.07-.37-3.87-.24-3.27-.59-8.2-1.35-9.63-.76-1.44-2.91-1.52-3.94-1.56-.56-.02-.97-.04-1.15-.47-.14-.34-.16-.61-.2-.94l-.03-.31c-.05-.52,0-11.34.85-17.16.81-5.51.03-20.68-.2-22.93-.42-4.07-2.28-13-5.1-13-.46,0-.8.14-1.08.44-1.12,1.21-.86,4.53-.71,6.51.08.99.11,1.52.05,1.87-.06.37-.15,2.37-.26,4.68-.25,5.42-.62,13.62-1.28,16.5-.44,1.91-.72,5.39-.98,8.45-.5,6.04-.67,7-1.31,7.32-.17.08-.36.09-.54.02-.17-.07-.31-.21-.37-.39-.04-.11-.93-2.79-1.13-6.28-.08-1.33-.1-2.71-.12-4.04-.03-2.1-.07-4.27-.32-6.26-.37-2.95-.14-14.39-.04-19.28l.03-1.49c.04-2.45-.68-5.45-1.21-7.63-.12-.5-.23-.96-.33-1.38-.49-2.18-2.37-4.05-3.71-4.25-.55-.08-.92.1-1.2.59-.75,1.29-.97,14.25-.83,18.93.07,2.32-.23,6.27-.49,9.76-.18,2.34-.34,4.55-.34,5.65,0,.83.01,1.66.03,2.5.03,1.92.07,3.9-.07,6.07-.06.92-.09,2.49-.09,4.69,0,.36-.29.65-.65.65h0c-.36,0-.65-.29-.65-.65,0-2.22.03-3.82.09-4.77.13-2.11.1-4.07.06-5.96-.01-.85-.03-1.68-.03-2.52,0-1.15.16-3.28.35-5.75.26-3.46.56-7.37.49-9.62-.08-2.52-.11-17.72,1-19.62.55-.95,1.44-1.38,2.52-1.21,2.02.31,4.21,2.71,4.78,5.25.09.41.2.87.32,1.36.55,2.26,1.29,5.34,1.25,7.96l-.03,1.49c-.09,4.44-.34,16.24.03,19.09.26,2.06.3,4.27.33,6.4.02,1.32.04,2.68.12,3.98.07,1.21.23,2.33.4,3.26.13-1.2.25-2.66.36-3.96.26-3.11.55-6.63,1-8.64.63-2.77,1-10.89,1.25-16.27.13-2.89.2-4.41.28-4.84.04-.21-.02-.89-.07-1.55-.18-2.34-.46-5.87,1.05-7.49.52-.57,1.21-.85,2.02-.85,4.88,0,6.33,13.58,6.39,14.16.24,2.36,1.04,17.53.19,23.25-.82,5.56-.89,16.28-.85,16.84l.03.33c0,.1.02.17.02.24.03,0,.05,0,.08,0,1.17.04,3.92.15,5.03,2.25.89,1.67,1.23,6.37,1.5,10.14.12,1.68.22,3.13.34,3.7.37,1.79.15,6.46-.69,9.81l-.15.55c-.93,3.21-9.72,17.2-11.46,18.65-1.33,1.1-3.18,3.19-4.39,5.73-1.16,2.44-2.12,5.34-2.13,5.37-.09.27-.34.44-.61.44Z"/>
        <path class="cls-1" d="m.68,69.04c-.36,0-.64-.29-.65-.64v-1.61c-.03-4.3-.05-7.7.05-8.58.02-.18.04-.4.06-.65.16-1.78.45-5.09,2.9-5.96,1.52-.54,2.56-.7,3.17-.75.35-.04.67.24.69.59.03.36-.24.67-.59.69-.53.04-1.45.19-2.83.68-1.66.59-1.9,3.26-2.04,4.85-.02.26-.04.5-.07.69-.1.8-.08,4.33-.05,8.42v1.61c.01.36-.28.65-.63.65h0Z"/>
        <path class="cls-1" d="m39.03,77.97h0c-.36,0-.64-.3-.64-.66,0-.03.04-2.79-.58-6.79-.23-1.5-.44-2.56-.6-3.41-.29-1.5-.47-2.4-.43-3.95.05-2,.17-2.59.2-2.69.09-.35.44-.56.78-.47.35.09.56.44.47.78,0,.01-.11.54-.16,2.41-.03,1.41.12,2.21.41,3.67.17.86.38,1.93.61,3.46.63,4.12.59,6.89.59,7.01,0,.35-.29.64-.65.64Z"/>
        <path class="cls-1" d="m5.87,62.74s-.04,0-.05,0c-.36-.03-.62-.34-.59-.7,0-.05.42-5.35.3-9.3-.03-.94-.07-1.75-.11-2.45-.13-2.37-.2-3.67.5-5.34.68-1.64,1.87-4.39,5.62-4.11,2.99.22,4.32,2.57,4.6,3.78.01.05.02.11.02.16l-.09,4.73-.6,7.3c-.03.36-.36.62-.7.59-.36-.03-.62-.34-.59-.7l.6-7.26.08-4.59c-.12-.42-.87-2.52-3.42-2.71-2.68-.2-3.5,1.32-4.33,3.32-.58,1.39-.52,2.52-.4,4.77.04.71.08,1.52.11,2.48.13,4.03-.29,9.39-.3,9.45-.03.34-.31.59-.64.59Z"/>
      </g>
    </g>
  </g>
</svg>