<?xml version="1.0" encoding="UTF-8"?>
<svg id="Layer_2" data-name="Layer 2" xmlns="http://www.w3.org/2000/svg" viewBox="0 0 90.45 128.65">
  <defs>
    <style>
      .cls-1 {
        fill: #ffefee;
      }

      .cls-2 {
        fill: #1e1d1d;
      }
    </style>
  </defs>
  <g id="Layer_1-2" data-name="Layer 1">
    <g>
      <path class="cls-1" d="m18.2,128s3.26-11.64,3.08-14.85.29-5.6-.18-7.17c-.47-1.57-5.43-24.78-6.43-30.85-1-6.07-3.69-11.31-4.33-13.67-.34-1.27-4.28-14.49-5.66-17.74C1.85,37.05.08,32.12.83,31.32c1.61-1.73,6.03,2.39,7.4,4.59,1.37,2.19,3.52,7.9,3.91,8.79.39.89,4.7,8.93,5.25,10.1.54,1.17,3.31,6.86,3.82,7.12s1.41-.26,1.5-.69c.09-.43-1.54-14.1-1.99-16.15s-.6-14.29-.63-16.26c-.02-1.03-.7-7.73-1.51-12.83-.73-4.63-1.66-7.72-.57-8.47,2.28-1.59,6.08,1.58,7.88,8.01,1.2,4.31,1.59,13.39,1.85,15.92.25,2.53.58,7.56,1.33,11.52.76,3.96,1.16,10.78,1.7,10.91.54.14,1.34-.63,1.39-1.2.05-.57-.07-7.12.09-10.69.15-3.57.7-13.46.53-15.59-.08-.94.58-5.24-.37-10.01-1.28-6.42-2.11-13.11-1.46-14.84.66-1.74,4.35-1.08,6.58,3.53,1.01,2.09,1.63,5.61,1.92,7.95s1.24,10.04,1.58,12.37.51,8.48.57,11.97c.06,3.49-.62,12.46-.1,13.39.51.93,1.81.82,2.29-.07.48-.89,1.99-14.96,3.54-18.64,1.56-3.68,1.68-11.02,2.06-13.83.38-2.8-.28-11.74,3.89-11.81,4.18-.07,3.44,13.13,3.53,14.74s-1,9.6-.87,11.34c.13,1.74-1.41,11.91-2.28,15.62s-1.49,6.85-1.5,9.39c-.01,2.54-.28,6.22-.08,7.07.2.85,1.65,6.71,2.74,7.39,1.09.67,3.24,1.32,4.96.37s7.7-7.32,9.78-10.12c2.08-2.8,6.21-6.06,10.08-7.48,5.61-2.07,10.07.97,10.17,2.06.1,1.09-10.1,9.6-11.36,11.61-1.26,2.01-7.24,8.71-9.28,11.17-2.04,2.46-6.82,9.43-8.56,12.66-1.49,2.76-7.2,16.54-8.08,18.21-.87,1.67-4.18,12.43-4.18,12.43l-.87,2.63-29.27,2.52Z"/>
      <path class="cls-2" d="m18.2,128.65c-.19,0-.38-.09-.5-.23-.14-.16-.18-.38-.12-.59.03-.12,3.23-11.57,3.05-14.63-.08-1.41-.04-2.65,0-3.74.05-1.39.09-2.49-.15-3.28-.47-1.55-5.41-24.62-6.44-30.93-.67-4.1-2.14-7.82-3.2-10.54-.5-1.28-.9-2.3-1.11-3.07-.38-1.41-4.29-14.51-5.63-17.66C-.52,33.12-.3,31.58.35,30.88c.3-.32.84-.69,1.74-.6,2.36.23,5.6,3.56,6.68,5.29,1.13,1.8,2.7,5.73,3.54,7.84.19.49.34.85.42,1.03.19.43,1.48,2.89,2.63,5.06,1.2,2.28,2.34,4.44,2.61,5.03.81,1.75,2.99,6.12,3.57,6.82.14,0,.42-.14.52-.26-.05-1.41-1.57-13.99-1.98-15.87-.37-1.7-.54-9.62-.63-15.44l-.02-.95c-.02-1.04-.7-7.71-1.5-12.75-.17-1.06-.35-2.04-.51-2.93-.61-3.34-.97-5.35.2-6.17.82-.57,1.81-.68,2.86-.3,2.46.89,4.77,4.21,6.01,8.66.95,3.41,1.4,9.74,1.67,13.52.08,1.08.14,1.95.19,2.51.06.56.11,1.23.18,1.99.24,2.7.56,6.41,1.14,9.47.33,1.72.59,3.97.82,5.95.19,1.61.42,3.55.61,4.35.17-.14.37-.38.38-.52.02-.18.01-1.29,0-2.47,0-2.35-.02-5.9.08-8.2.03-.73.08-1.74.14-2.89.21-4.37.53-10.97.39-12.62-.02-.28,0-.71.04-1.37.1-1.77.3-5.06-.4-8.57-1.14-5.74-2.2-13.16-1.43-15.2.29-.77,1.02-1.26,1.94-1.3,1.73-.07,4.18,1.37,5.82,4.77,1.12,2.32,1.72,6.1,1.98,8.15l.33,2.66c.4,3.17.99,7.97,1.24,9.7.4,2.8.55,10.52.58,12.04.02,1.32-.06,3.38-.14,5.55-.11,2.93-.27,6.95-.03,7.56.13.24.35.29.51.29h0c.21,0,.48-.1.63-.38.14-.34.49-2.7.83-4.99.71-4.73,1.67-11.2,2.68-13.59,1.11-2.61,1.47-7.24,1.73-10.61.1-1.23.18-2.29.28-3.05.07-.53.11-1.33.15-2.25.17-4.01.43-10.06,4.38-10.12.66-.02,1.33.25,1.86.78,2.11,2.09,2.36,7.95,2.32,13.4,0,.55,0,.97,0,1.17.05.82-.18,3.05-.42,5.41-.24,2.37-.51,5.07-.45,5.92.13,1.83-1.41,12.07-2.3,15.82-.76,3.24-1.47,6.6-1.48,9.25,0,.95-.04,2.05-.08,3.11-.06,1.57-.12,3.35-.02,3.8.83,3.5,1.93,6.63,2.46,6.99.81.5,2.75,1.21,4.3.35,1.57-.87,7.45-7.08,9.57-9.94,2.3-3.1,6.66-6.34,10.38-7.7,3.87-1.43,7.41-.56,9.43.72.57.36,1.54,1.09,1.61,1.89.07.76-.9,1.82-6.06,6.63-2.28,2.12-4.86,4.53-5.39,5.38-.91,1.45-4.11,5.16-6.67,8.14-1.08,1.25-2.04,2.37-2.65,3.1-2.03,2.46-6.77,9.37-8.49,12.56-.86,1.58-3.21,7.04-5.09,11.43-1.4,3.25-2.6,6.05-2.98,6.77-.67,1.28-3,8.62-4.14,12.32l-.88,2.65c-.08.25-.3.42-.56.44l-29.27,2.52s-.04,0-.06,0ZM1.84,31.55c-.3,0-.45.11-.54.21-.17.41.09,2.53,3.98,11.72,1.43,3.39,5.41,16.79,5.69,17.82.19.7.6,1.74,1.07,2.94,1.09,2.77,2.58,6.57,3.28,10.8,1.02,6.23,6,29.42,6.41,30.77.3,1,.26,2.19.21,3.7-.04,1.06-.08,2.27,0,3.62.16,2.78-2.09,11.34-2.85,14.16l27.92-2.4.74-2.23c.13-.43,3.34-10.82,4.23-12.52.35-.68,1.61-3.59,2.94-6.68,2-4.64,4.26-9.9,5.14-11.53,1.75-3.25,6.57-10.27,8.63-12.77.61-.74,1.58-1.86,2.67-3.12,2.41-2.79,5.7-6.61,6.56-7.98.62-.99,3.04-3.25,5.6-5.64,2.2-2.05,5.18-4.83,5.63-5.63-.12-.19-.59-.69-1.56-1.18-1.07-.54-3.96-1.65-7.71-.27-3.97,1.46-7.93,4.76-9.79,7.26-2.09,2.82-8.12,9.27-9.99,10.3-2.07,1.14-4.5.3-5.61-.38-1.25-.77-2.54-5.7-3.04-7.79-.14-.59-.1-1.96-.02-4.15.04-1.04.08-2.14.08-3.07.01-2.78.74-6.23,1.52-9.54.92-3.9,2.38-13.84,2.26-15.43-.07-.96.19-3.48.46-6.14.22-2.21.46-4.49.42-5.21-.01-.22-.01-.66,0-1.25.02-2.87.07-10.48-1.94-12.47-.28-.28-.57-.41-.91-.41h-.02c-2.73.04-2.97,5.58-3.11,8.88-.04.95-.08,1.77-.16,2.36-.1.72-.18,1.76-.27,2.97-.27,3.47-.64,8.21-1.83,11.02-.95,2.24-1.9,8.62-2.6,13.28-.56,3.77-.76,5.02-.98,5.42-.35.65-1.03,1.06-1.76,1.06h0c-.7,0-1.31-.37-1.65-.98-.37-.67-.32-3.02-.12-8.21.08-2.16.16-4.19.14-5.48-.07-4.16-.27-9.77-.57-11.89-.25-1.74-.85-6.55-1.24-9.73l-.33-2.66c-.2-1.59-.79-5.52-1.86-7.75-1.38-2.86-3.38-4.09-4.6-4.05-.29.01-.65.1-.79.46-.53,1.4.09,7.49,1.49,14.48.73,3.67.53,7.07.43,8.9-.03.53-.06,1-.04,1.18.14,1.73-.16,8.12-.39,12.79-.06,1.15-.1,2.15-.13,2.88-.1,2.27-.09,5.8-.08,8.13,0,1.59,0,2.36-.01,2.58-.05.63-.54,1.18-.94,1.46-.42.3-.86.41-1.25.31-.7-.18-.82-.86-1.37-5.56-.23-1.96-.49-4.18-.81-5.86-.6-3.13-.92-6.87-1.16-9.6-.07-.75-.12-1.42-.18-1.97-.06-.57-.12-1.46-.2-2.55-.27-3.73-.71-9.97-1.63-13.26-1.36-4.86-3.65-7.24-5.2-7.79-.64-.23-1.21-.18-1.68.15-.5.34-.08,2.65.33,4.88.16.9.34,1.89.51,2.96.8,5.09,1.5,11.86,1.52,12.92l.02.95c.05,3.32.22,13.41.6,15.18.36,1.67,2.13,15.73,1.99,16.42-.09.42-.45.82-.97,1.07-.51.25-1.04.27-1.45.07-.88-.44-3.99-7.14-4.12-7.42-.26-.56-1.44-2.8-2.58-4.97-1.26-2.4-2.46-4.67-2.67-5.15-.08-.18-.23-.56-.43-1.07-.77-1.93-2.37-5.93-3.43-7.64-1.08-1.73-4.02-4.52-5.71-4.69-.05,0-.09,0-.13,0Z"/>
    </g>
  </g>
</svg>