<?xml version="1.0" encoding="UTF-8"?>
<svg id="Layer_2" data-name="Layer 2" xmlns="http://www.w3.org/2000/svg" viewBox="0 0 51.05 126.61">
  <defs>
    <style>
      .cls-1 {
        fill: #ede8e8;
      }

      .cls-2 {
        fill: #3d3b3b;
      }
    </style>
  </defs>
  <g id="Layer_1-2" data-name="Layer 1">
    <g>
      <path class="cls-2" d="m50.4,64.67c.01-.21,0-.4-.01-.59,0-.01,0-.03,0-.04.05-.65-.27-1.23-.7-1.73-.55-.71-1.28-1.13-1.64-1.42-.65-.52-2.66-1.74-4.04-3.31-1.38-1.57-1.82-1.81-1.82-1.81,0,0,.33-5.09,1.26-10.41.92-5.31.42-9.52.44-11.63.02-2.11-.2-15.6-.22-17.6s-1.71-11.12-4.57-11.69c-2.85-.58-3.25,5.73-3.25,5.73,0,0-.14-2.99-.59-4.62-.58-2.09-1.69-5.74-4.56-4.72-.46.16-.84.42-1.16.74-1.71,1.71-1.81,10.19-1.93,12.59-.15,2.85-2.77,16.75-3.92,21.38-1.15,4.63-2.22,16.04-2.37,16.75-.08.38-.32.78-.61.97t0,0c-.09.05-.18.09-.27.1-.16.02-.31-.03-.45-.19-.5-.56.74-10.81.72-12.32-.02-1.5.77-10,.9-11.02.13-1.02,1.38-14.3,1.01-15.93-.47-2.07-2.47-6.8-4.83-5.49-.22.12-.43.25-.64.41-2.5,1.91-4.78,20.99-4.76,22.82.02,1.84-1.83,10.94-1.96,14.04-.13,3.09-1.19,13.3-1.19,13.3,0,0-.57-.28-1.33-.44-.76-.17-3.69-.14-4.61.78-.91.92-2.45,9.2-2.66,13.85-.13,2.99.72,7.77.69,11.66-.03,3.89,4.45,20.74,4.31,22.63-.14,1.89-4.4,14.86-4.4,14.86l26.63,3.65s3.87-8.17,5.19-10.56c1.31-2.39,8.25-11.53,10.16-14.48,1.67-2.58,4.15-11.72,5.56-15.36.2-.51.35-.93.45-1.22.8-2.39.39-7.39.48-9.34.09-1.94.52-8.02.68-10.34Zm-16.41-28.86c.07-.63.36-3.22.47-4.53.12-1.43.92-13.25.98-14.02v-.06s-.02,8.62-.2,11.19c-.19,2.57-1.26,7.56-1.26,7.56l.02-.14Z"/>
      <g>
        <path class="cls-1" d="m27.89,126.61s-.06,0-.09,0l-26.63-3.65c-.19-.03-.36-.14-.46-.3-.1-.16-.12-.36-.07-.54,1.18-3.59,4.27-13.22,4.37-14.7.06-.74-.85-4.78-1.72-8.69-1.22-5.46-2.6-11.65-2.59-13.89.01-1.89-.18-4-.38-6.04-.2-2.1-.38-4.08-.32-5.64.19-4.39,1.67-13.1,2.85-14.28,1.19-1.19,4.5-1.11,5.21-.95.23.05.45.11.64.17.25-2.5.99-9.9,1.1-12.42.07-1.65.59-4.84,1.1-7.92.43-2.59.87-5.26.86-6.08-.01-1.44,2.18-21.17,5.02-23.34.23-.18.48-.34.73-.47.66-.37,1.38-.4,2.08-.09,2.1.94,3.39,4.75,3.68,6.01.42,1.83-.92,15.52-1,16.15-.14,1.1-.91,9.51-.9,10.93,0,.56-.14,2.09-.32,4.04-.23,2.45-.59,6.36-.53,7.65.07-.11.14-.25.17-.4.03-.14.13-1.07.25-2.15.43-3.87,1.24-11.08,2.12-14.62,1.19-4.79,3.76-18.51,3.9-21.26.01-.29.03-.68.05-1.13.19-4.94.52-10.34,2.08-11.89.4-.4.87-.7,1.4-.89.9-.32,1.73-.28,2.48.11,1.57.82,2.33,2.91,2.92,5.05.06.23.12.48.17.74.31-.76.73-1.45,1.29-1.88.55-.42,1.2-.57,1.88-.43,3.55.71,5.07,10.71,5.09,12.32,0,.66.03,2.56.07,4.89.07,4.77.16,11.3.15,12.72,0,.48.02,1.08.04,1.77.09,2.32.22,5.82-.5,9.97-.78,4.44-1.14,8.77-1.23,10,.31.26.82.75,1.64,1.69.99,1.13,2.34,2.08,3.24,2.71.31.22.56.39.73.53l.26.2c.85.65,2.44,1.85,2.31,3.5h0c-.18,2.3-.57,9.04-.67,10.95-.02.52-.01,1.29,0,2.18.04,2.45.09,5.5-.52,7.33-.1.3-.26.73-.46,1.25-.49,1.26-1.12,3.23-1.79,5.32-1.27,3.95-2.7,8.42-3.83,10.16-.82,1.26-2.52,3.61-4.32,6.09-2.38,3.28-5.07,7-5.81,8.35-1.29,2.34-5.13,10.44-5.17,10.52-.11.23-.34.37-.58.37Zm-25.78-4.83l25.4,3.48c.82-1.73,3.85-8.07,5-10.17.78-1.42,3.38-5.01,5.9-8.48,1.79-2.47,3.49-4.81,4.28-6.04,1.04-1.6,2.44-5.98,3.68-9.85.67-2.1,1.31-4.09,1.82-5.39.19-.5.34-.91.44-1.19.54-1.61.49-4.67.45-6.89-.02-.91-.03-1.7,0-2.27.09-1.91.49-8.68.67-10.99.07-.94-1.15-1.87-1.81-2.37l-.29-.22c-.15-.12-.38-.28-.66-.48-.94-.66-2.37-1.66-3.47-2.91-1.22-1.39-1.65-1.67-1.67-1.69-.2-.13-.33-.36-.31-.6,0-.05.35-5.19,1.27-10.48.7-4.01.57-7.43.48-9.7-.03-.72-.05-1.33-.04-1.83.01-1.41-.08-7.93-.15-12.69-.03-2.33-.06-4.23-.07-4.89-.02-2.52-1.87-10.63-4.05-11.07-.32-.06-.58,0-.84.19-1.14.87-1.57,3.86-1.64,4.94-.02.34-.3.58-.65.61-.34,0-.62-.27-.64-.62,0-.03-.14-2.94-.56-4.47-.32-1.16-.99-3.58-2.27-4.25-.42-.22-.9-.23-1.45-.04-.35.13-.65.32-.92.59-1.33,1.33-1.6,8.37-1.7,11.03-.02.46-.03.85-.05,1.15-.16,2.98-2.85,17.11-3.94,21.5-.85,3.45-1.69,10.88-2.09,14.45-.16,1.43-.23,2.08-.28,2.27-.12.55-.44,1.06-.84,1.35-.02.02-.05.03-.07.05-.18.11-.36.17-.53.19-.35.05-.72-.09-1-.39-.41-.45-.43-1.6.24-8.84.16-1.76.32-3.42.31-3.9-.02-1.59.79-10.23.91-11.11.17-1.38,1.34-14.27,1.02-15.7-.4-1.77-1.65-4.54-2.95-5.12-.33-.15-.62-.13-.93.04-.2.1-.38.22-.56.36-2.08,1.59-4.54,19.69-4.51,22.3.01.94-.4,3.43-.88,6.31-.48,2.9-1.02,6.19-1.09,7.76-.13,3.08-1.15,12.92-1.19,13.34-.02.21-.14.39-.33.5-.19.1-.41.11-.6.02,0,0-.52-.25-1.2-.4-.78-.17-3.37-.04-4.01.6-.65.73-2.25,8.37-2.47,13.42-.06,1.47.12,3.41.31,5.46.2,2.07.4,4.21.38,6.17-.01,2.09,1.41,8.48,2.56,13.6,1.16,5.2,1.81,8.18,1.75,9.07-.12,1.71-3.23,11.32-4.19,14.27Zm48.29-57.74h0,0Z"/>
        <path class="cls-1" d="m33.97,36.6s-.07,0-.11,0c-.34-.06-.58-.38-.53-.72l.08-.68c.11-1.01.32-2.91.41-3.96.09-1,.51-7.23.76-10.95.11-1.63.19-2.84.21-3.07.03-.35.32-.66.67-.63.35.01.62.27.62.62,0,.35-.02,8.67-.2,11.23-.19,2.59-1.23,7.44-1.28,7.65-.07.3-.33.51-.63.51Z"/>
      </g>
      <path class="cls-1" d="m31.41,55.06c-.06,0-.12,0-.18-.03-.34-.1-.54-.46-.44-.8.02-.08.05-.27.1-.53.09-.49.21-1.18.37-1.87.26-1.14,1.25-6.62,1.4-7.93.17-1.36.67-7.92.67-7.98.02-.14,1.08-5.06,1.26-7.55.18-2.52.2-11.06.2-11.14l.43-7.08c.02-.36.35-.62.68-.61.36.02.63.33.61.69l-.43,7.04c0,.31-.02,8.63-.2,11.2-.19,2.59-1.23,7.44-1.28,7.65,0,.18-.5,6.56-.67,7.95-.16,1.38-1.16,6.87-1.42,8.07-.15.67-.27,1.34-.35,1.81-.06.34-.11.59-.13.67-.08.28-.34.46-.62.46Z"/>
      <path class="cls-1" d="m44.55,78.87h-.02c-.36-.01-.64-.31-.63-.67.05-1.58-.64-3.84-1.2-5.65-.29-.95-.54-1.77-.68-2.42-.43-2.13-.56-3.53-.47-5,.09-1.46,0-9.27,0-9.35,0-.36.28-.65.64-.65h0c.35,0,.64.28.65.64,0,.32.09,7.93,0,9.44-.08,1.35.04,2.66.45,4.66.12.59.38,1.42.65,2.3.59,1.91,1.32,4.28,1.26,6.07-.01.35-.3.63-.65.63Z"/>
    </g>
  </g>
</svg>