<?xml version="1.0" encoding="UTF-8"?>
<svg id="Layer_2" data-name="Layer 2" xmlns="http://www.w3.org/2000/svg" viewBox="0 0 52.47 125.87">
  <defs>
    <style>
      .cls-1 {
        fill: #ede8e8;
      }

      .cls-2 {
        fill: #3d3b3b;
      }
    </style>
  </defs>
  <g id="Layer_1-2" data-name="Layer 1">
    <g>
      <path class="cls-2" d="m47.59,66c-1.63-1.36-4.87-2.31-4.87-2.31,0,0-2.05-15.6-1.95-21.09.1-5.49-1.06-9.64-1.37-11.76-.31-2.13-2.64-15.65-2.97-17.66-.33-2.01-3.54-10.14-6.51-10.27-2.95-.14-2.28,5.49-2.28,5.5h0s-.51-1.7-1.51-3.08c-1-1.39-3.51-5.84-6.24-4.37-.33.18-.91,1.41-1.18,2.35,0,0,0,0,0,0,0,0,0,0,0,0-.08.29-.14.55-.15.75-.02.64-.01,1.46.02,2.35,0,3.07.33,5.76.51,7.59.23,2.3.55,11.71.45,17.88-.03,1.57-.08,2.94-.17,3.93-.19,2.13-.16,5.58-.07,8.83.07,2.41.16,4.71.23,6.29.05,1.14.08,1.91.07,2.08,0,.1-.02.2-.05.3-.06.23-.16.45-.29.62-.04.05-.08.1-.12.14t0,0c-.08.07-.16.12-.25.14-.15.05-.32.02-.48-.12-.59-.48-1.56-9.92-1.82-11.43-.25-1.5-.16-11.24-.19-12.29-.03-1.05-1.08-14.51-1.47-16.17-.81-3.41-3.48-8.03-5.64-6.35,0,0,0,0,0,0-.1.08-.2.16-.3.24-.07.06-.14.13-.21.2-.03.03-.05.05-.08.07-.95.99-.53,4.97-.64,9.82-.24,6.61-.83,14.38-.66,15.45.04.24.07.62.09,1.09,0,.25.02.53.02.83-.02-.13-.66-4.27-2.46-5.1-2.28-1.06-2.89,2.57-2.82,5.55.06,2.63-.84,12.09-1.25,16.53-.41,4.44,0,16.01,0,16.01,0,.17.01.36.01.56,0,2.58-.52,7.36-.3,8.92.44,3.02,1.86,6.6,2.43,10.52.58,3.92,6.66,21.98,6.81,23.9.16,1.92-2.48,11.26-2.48,11.26l29.19,1.51s2.62-8.82,3.57-11.42c.95-2.61,4.19-6.81,5.65-10.07.52-1.16,2.33-9.57,3.03-11.99,1.03-3.55,2.07-7.66,2.58-9.96.12-.54.21-.99.26-1.3.62-4.18-2.51-13.11-4.15-14.48ZM29.52,29.85c-.1-1.46-1.14-13.46-1.21-14.25v-.06s1.32,8.67,1.54,11.28c.06.76.08,1.73.08,2.72-.01,2.33-.15,4.81-.16,5.05v-.12c-.04-.64-.15-3.29-.24-4.63Z"/>
      <g>
        <path class="cls-1" d="m36.66,125.87s-.02,0-.03,0l-29.19-1.51c-.2,0-.38-.11-.49-.27-.12-.16-.15-.36-.1-.55,1.05-3.71,2.57-9.7,2.46-11.03-.06-.81-1.45-5.33-2.8-9.7-1.73-5.62-3.69-11.98-4.01-14.16-.3-2.04-.83-3.98-1.34-5.85-.45-1.65-.88-3.21-1.09-4.66-.14-.98-.02-2.99.11-5.11.09-1.4.18-2.86.18-3.9,0-.19,0-.36-.01-.52-.02-.48-.41-11.67,0-16.1l.1-1.1c.42-4.53,1.2-12.96,1.15-15.35-.04-1.48.06-5.03,1.68-6.1.41-.27,1.11-.5,2.06-.06.59.27,1.06.8,1.44,1.43.05-1.16.13-2.73.24-4.75.15-2.66.31-5.67.41-8.48.05-1.48.04-2.91.04-4.17-.02-3.09-.03-5.13.78-5.98.21-.22.43-.42.66-.59.63-.49,1.37-.62,2.13-.35,2.26.79,3.98,4.75,4.53,7.06.41,1.71,1.46,15.23,1.49,16.3,0,.28,0,1.17,0,2.35,0,3.07,0,8.79.17,9.84.07.4.19,1.36.33,2.56.29,2.36.87,7.08,1.25,8.33.08-.13.14-.31.15-.49,0-.15-.03-1.13-.08-2.27-.17-3.95-.47-11.3-.15-14.96.43-4.82.01-18.77-.29-21.69-.23-2.23-.62-7.46-.53-10.04.03-.86.9-3.23,1.67-3.65,2.93-1.58,5.46,2.18,6.68,3.99.15.22.28.41.39.57.13.19.26.38.38.57.14-.92.43-1.86,1.01-2.49.49-.53,1.15-.79,1.91-.76,3.57.16,6.82,9.03,7.11,10.82.11.64.41,2.44.79,4.67.83,4.87,1.96,11.54,2.17,13,.07.49.19,1.08.32,1.77.45,2.32,1.13,5.82,1.05,10.09-.09,4.89,1.57,18.08,1.89,20.58.95.31,3.32,1.16,4.7,2.31h0c1.85,1.55,5.02,10.71,4.37,15.07-.05.3-.13.72-.24,1.22l-.02.11c-.5,2.26-1.55,6.42-2.59,10.01-.29,1.01-.78,3.06-1.29,5.23-.87,3.7-1.47,6.18-1.77,6.85-.72,1.6-1.83,3.39-2.91,5.13-1.16,1.85-2.25,3.61-2.72,4.9-.93,2.56-3.53,11.3-3.55,11.39-.08.28-.33.46-.62.46Zm-28.35-2.76l27.88,1.44c.57-1.9,2.61-8.7,3.43-10.97.52-1.42,1.64-3.23,2.83-5.14,1.06-1.7,2.15-3.45,2.83-4.97.28-.62,1.06-3.95,1.69-6.62.52-2.19,1-4.25,1.3-5.29,1.03-3.56,2.07-7.69,2.56-9.92l.02-.11c.1-.48.18-.87.23-1.15.61-4.08-2.5-12.69-3.92-13.89-1.51-1.26-4.61-2.18-4.64-2.19-.25-.07-.43-.28-.46-.54-.09-.64-2.06-15.71-1.96-21.18.08-4.14-.59-7.56-1.03-9.82-.14-.72-.26-1.33-.33-1.84-.21-1.44-1.34-8.1-2.17-12.97-.38-2.24-.69-4.04-.79-4.68-.37-2.27-3.57-9.63-5.9-9.73-.38-.01-.66.09-.9.35-.9.96-.82,3.52-.71,4.43.04.33-.18.64-.51.71-.33.06-.65-.13-.75-.45,0-.02-.49-1.61-1.41-2.89-.12-.16-.26-.37-.41-.6-1.08-1.61-3.1-4.6-5-3.57-.23.22-.97,1.9-.99,2.55-.08,2.32.25,7.22.53,9.86.3,2.95.72,17.06.29,21.93-.32,3.58,0,11.15.15,14.79.06,1.51.09,2.19.08,2.39-.03.58-.29,1.15-.66,1.5-.01.01-.02.02-.03.03-.11.1-.29.23-.53.28-.32.1-.71.02-1.03-.24-.48-.39-.8-1.79-1.72-9.32-.14-1.18-.26-2.11-.33-2.51-.18-1.07-.19-5.56-.19-10.06,0-1.17,0-2.04,0-2.32-.03-1.15-1.08-14.48-1.45-16.04-.6-2.5-2.26-5.64-3.7-6.14-.34-.12-.62-.07-.92.16-.18.14-.35.29-.51.45-.45.47-.44,2.81-.42,5.07,0,1.27.02,2.71-.04,4.22-.1,2.82-.27,5.84-.41,8.51-.18,3.27-.35,6.37-.26,6.91.06.37.1,1.02.12,2.03,0,.26-.15.5-.39.61-.25.1-.52.05-.71-.14-.1-.1-.16-.24-.18-.38-.32-1.96-1.09-4.15-2.09-4.61-.5-.23-.72-.09-.8-.03-.71.47-1.16,2.47-1.1,4.98.06,2.47-.7,10.63-1.15,15.5l-.1,1.1c-.4,4.35,0,15.81,0,15.92,0,.17.01.37.01.58,0,1.09-.09,2.56-.18,3.98-.12,1.96-.25,3.99-.13,4.85.2,1.37.62,2.9,1.06,4.51.52,1.91,1.06,3.89,1.37,6.01.31,2.08,2.25,8.4,3.97,13.97,1.72,5.6,2.78,9.07,2.85,9.97.14,1.71-1.62,8.31-2.29,10.7Zm10.4-69.5s0,0,0,0h0s0,0,0,0Z"/>
        <path class="cls-1" d="m29.76,35.27h0c-.35,0-.63-.28-.64-.63l-.04-.83c-.05-1.06-.13-2.88-.21-3.91-.07-1.03-.62-7.42-.95-11.24-.14-1.59-.24-2.77-.26-3-.03-.35.22-.68.57-.72.34-.04.66.17.71.51.05.35,1.33,8.72,1.55,11.32.22,2.63-.07,7.67-.09,7.89-.02.34-.3.61-.65.61Z"/>
      </g>
      <path class="cls-1" d="m48.91,92.38c-.06,0-.12,0-.18-.03-.34-.1-.54-.46-.44-.8,1.03-3.56,2.07-7.69,2.56-9.92l.02-.11c.1-.48.18-.87.23-1.15.61-4.08-2.5-12.69-3.92-13.89-.94-.79-2.51-1.44-3.56-1.82.1.29.24.65.44,1.08.42.93.87,2.81,1.38,5,.45,1.92.97,4.1,1.52,5.79.11.34-.08.7-.42.81-.34.11-.7-.08-.81-.42-.57-1.75-1.09-3.95-1.55-5.9-.48-2.03-.93-3.94-1.3-4.76-.75-1.66-.8-2.41-.8-2.6,0-.2.1-.39.26-.52.16-.12.37-.16.57-.1.14.04,3.39,1,5.11,2.43,1.85,1.55,5.02,10.71,4.37,15.07-.05.3-.13.72-.24,1.22l-.02.11c-.5,2.26-1.55,6.42-2.59,10.01-.08.28-.34.47-.62.47Z"/>
      <path class="cls-1" d="m8.51,62.29c-.34,0-.63-.27-.64-.61,0-.1-.53-10.44-.88-13.52-.19-1.67-.16-4.95-.13-8.13.03-2.67.05-5.43-.09-6.26-.1-.6,0-2.54.21-6.23.15-2.65.34-5.96.42-8.95.04-1.53.03-3,.02-4.29-.03-3.29-.05-5.46.81-6.35.21-.22.43-.42.66-.59.29-.21.69-.15.9.13.21.29.16.69-.13.91-.17.13-.34.28-.5.45-.49.51-.47,3.02-.45,5.44.01,1.31.02,2.79-.02,4.34-.09,3.01-.28,6.33-.43,8.99-.16,2.81-.31,5.46-.23,5.94.16.94.13,3.51.11,6.48-.03,2.99-.06,6.38.12,7.97.35,3.11.86,13.17.88,13.6.02.36-.26.66-.61.68-.01,0-.02,0-.03,0Z"/>
      <path class="cls-1" d="m30.06,54.22s-.06,0-.09,0c-.35-.05-.6-.37-.56-.72,0-.08.01-.28.02-.55.01-.5.03-1.23.08-1.94.08-1.19.22-6.85.17-8.2-.05-1.4-.56-8.06-.57-8.13,0-.14.3-5.25.09-7.79-.21-2.56-1.52-11.15-1.54-11.24l-.67-7.18c-.03-.36.23-.67.58-.7.33-.03.67.23.7.58l.67,7.15c.05.32,1.33,8.68,1.54,11.29.21,2.63-.08,7.67-.09,7.89.02.19.52,6.68.57,8.1.05,1.42-.09,7.09-.17,8.33-.05.7-.06,1.4-.07,1.88,0,.35-.01.6-.03.69-.04.33-.32.56-.64.56Z"/>
    </g>
  </g>
</svg>