<?xml version="1.0" encoding="UTF-8"?>
<svg id="Layer_2" data-name="Layer 2" xmlns="http://www.w3.org/2000/svg" viewBox="0 0 47.18 122.04">
  <defs>
    <style>
      .cls-1 {
        fill: #ffefee;
      }

      .cls-2 {
        fill: #1e1d1d;
      }
    </style>
  </defs>
  <g id="Layer_1-2" data-name="Layer 1">
    <g>
      <path class="cls-1" d="m46.36,77.03c-.42-2.03-.6-12.41-1.94-14.93-1.33-2.52-5.43-1.93-5.52-2.16-.15-.37-.14-.62-.2-1.19-.06-.58.02-12.41.93-18.57.91-6.16-.55-22.76-.79-25.13s-1.95-14.4-6.2-14.4-2.42,8.39-2.66,9.79c-.24,1.4-.06,18.49-1.1,23.01-.86,3.79-1.17,12.72-1.75,15.74-.26-2.76-.75-7.42-1.18-9.43-.63-2.93-1.37-4.11-1.37-4.11h0c-.56-1.37-1.87-2.14-4.17-2.12-2.55.02-3.42.62-4.55,3.19-.64,1.44-.68,2.54-.62,4.17-.26-.56-1.01-1.4-3.22-1.58-2.63-.22-4.02,1.06-4.94,3.24-.82,1.96-.29,4.01-.07,7.58-.6.06-1.62.24-3.12.77-2.58.91-2.95,3.73-3.15,5.31-.13,1.03-.08,5.72-.05,11.04.01,2.8.02,5.78,0,8.51-.06,7.89,8.06,28.38,7.39,32.08-.67,3.7-4.61,11.9-4.61,11.9l23.85,1.68s1.06-3.22,2.37-5.95c1.31-2.73,3.75-7.57,5.39-8.94,1.64-1.36,9.37-15.03,10.37-18.49.05-.19.11-.38.16-.59.87-3.46,1.15-8.47.75-10.4Z"/>
      <g>
        <path class="cls-2" d="m27.12,49.83c-.33,0-.61-.25-.64-.59,0-.06-.56-6.49-1.17-9.35-.59-2.75-1.28-3.89-1.29-3.9-.19-.3-.1-.7.21-.89.3-.19.7-.1.89.2.03.05.82,1.31,1.46,4.32.63,2.94,1.17,9.24,1.19,9.51.03.36-.23.67-.59.7-.02,0-.04,0-.06,0Z"/>
        <path class="cls-2" d="m27.32,122.04s-.03,0-.05,0l-23.85-1.68c-.21-.02-.41-.14-.51-.32-.11-.19-.12-.41-.02-.61.04-.08,3.92-8.16,4.56-11.73.28-1.56-1.39-7.21-3.01-12.67C2.36,88.03,0,80.08.04,75.74c.02-2.72,0-5.7,0-8.5v-1.66c-.04-4.75-.06-8.49.06-9.46.19-1.55.59-4.78,3.57-5.84,1.65-.58,2.78-.77,3.44-.82.34-.03.67.24.69.59.03.36-.24.67-.59.69-.58.05-1.6.21-3.11.75-2.06.73-2.48,2.85-2.72,4.77-.11.88-.09,4.78-.06,9.3v1.66c.02,2.8.03,5.79.01,8.52-.03,4.15,2.29,12,4.34,18.92,2.09,7.07,3.36,11.5,3.04,13.27-.55,3.07-3.23,8.99-4.26,11.21l22.41,1.58c.35-1,1.21-3.41,2.23-5.55,2.39-5,4.26-8.08,5.56-9.16,1.46-1.21,9.14-14.62,10.17-18.17l.16-.57c.86-3.42,1.11-8.33.74-10.1-.15-.71-.26-2.26-.4-4.21-.26-3.58-.65-8.98-1.48-10.55-.85-1.61-3.21-1.7-4.35-1.74-.62-.02-1.02-.04-1.2-.48-.15-.37-.18-.65-.21-1.01l-.03-.35c-.06-.57,0-12.37.93-18.74.86-5.81-.43-21.42-.8-24.97-.46-4.51-2.42-13.82-5.56-13.82-.54,0-.95.17-1.27.51-1.21,1.3-.95,4.73-.8,6.78.07.91.12,1.57.05,1.96-.07.4-.11,2.63-.15,5.22-.1,5.85-.24,14.7-.96,17.82-.48,2.09-.79,5.89-1.07,9.24-.54,6.57-.73,7.61-1.4,7.95-.32.16-.71.03-.87-.29-.13-.27-.06-.58.15-.77.31-.65.6-4.16.83-6.99.28-3.39.6-7.24,1.09-9.42.69-2.99.83-11.76.92-17.55.05-3.23.09-4.94.17-5.42.04-.23-.01-.95-.06-1.64-.18-2.41-.45-6.05,1.14-7.76.57-.61,1.32-.93,2.22-.93,5.25,0,6.78,14.37,6.84,14.98.37,3.59,1.66,19.35.79,25.29-.9,6.13-.97,17.81-.92,18.41l.04.37c.01.13.02.22.03.31.04,0,.09,0,.14,0,1.27.05,4.25.16,5.44,2.43.96,1.81,1.33,6.94,1.63,11.06.13,1.83.25,3.41.38,4.04.41,1.95.17,7.04-.75,10.69l-.16.6c-1,3.45-8.81,17.34-10.58,18.82-1.12.93-2.98,4.03-5.22,8.72-1.27,2.67-2.32,5.85-2.33,5.88-.09.27-.34.44-.61.44Zm12.17-62.35s0,0,0,0c0,0,0,0,0,0Zm-13.03-10.07s0,0,0,0c0,0,0,0,0,0Z"/>
        <path class="cls-2" d="m.68,67.88c-.36,0-.64-.29-.65-.64v-1.66c-.04-4.75-.06-8.49.06-9.46.19-1.55.59-4.78,3.57-5.84.34-.12.71.06.83.39.12.34-.06.71-.39.83-2.06.73-2.48,2.85-2.72,4.77-.11.88-.09,4.78-.06,9.3v1.66c.01.36-.28.65-.63.65h0Z"/>
        <path class="cls-2" d="m6.73,62.33s-.04,0-.05,0c-.36-.03-.62-.34-.59-.7,0-.06.46-5.84.32-10.17-.05-1.43-.16-2.64-.26-3.7-.21-2.23-.36-3.85.32-5.46,1.13-2.71,2.91-3.86,5.58-3.64,3.97.33,3.95,2.67,3.95,2.77,0,.35-.3.63-.65.63h-.02c-.36,0-.64-.31-.63-.66,0-.03-.08-1.22-2.77-1.44-2.1-.17-3.38.68-4.28,2.85-.55,1.32-.42,2.72-.22,4.85.1,1.08.21,2.31.26,3.78.14,4.4-.32,10.25-.33,10.31-.03.34-.31.59-.64.59Z"/>
        <path class="cls-2" d="m13.22,59.66c-.05,0-.11,0-.16-.02-.35-.09-.55-.44-.46-.79.02-.08,1.95-7.58,2.08-12.77.05-1.86-.01-3.26-.06-4.39-.09-2.15-.15-3.45.64-5.25,1.23-2.78,2.33-3.55,5.13-3.58.03,0,.06,0,.08,0,2.69,0,4.33,1.03,4.88,3.07.28,1.05.39,3.52.5,5.91.07,1.55.14,3.02.24,3.76.12.86.26,1.77.39,2.59.16.98.29,1.83.34,2.3.04.36-.22.67-.58.71-.35.03-.67-.22-.71-.58-.04-.43-.17-1.26-.33-2.22-.13-.83-.28-1.75-.4-2.61-.11-.8-.18-2.3-.25-3.88-.1-2.21-.21-4.72-.46-5.63-.25-.92-.91-2.1-3.7-2.11-2.3.02-2.93.46-3.96,2.8-.67,1.52-.62,2.64-.53,4.67.05,1.15.11,2.57.06,4.48-.14,5.33-2.04,12.74-2.12,13.06-.08.29-.34.48-.63.48Z"/>
        <path class="cls-2" d="m45.61,88.07c-.05,0-.11,0-.16-.02-.35-.09-.56-.44-.47-.79.87-3.43,1.11-8.33.74-10.11-.15-.71-.26-2.26-.4-4.21-.26-3.58-.65-8.98-1.48-10.55-.85-1.61-3.21-1.7-4.35-1.74-.02,0-.03,0-.04,0-.04.4-.08,1.06-.1,2.08-.04,1.54.14,2.42.45,4.02.18.94.41,2.11.67,3.78.69,4.49.66,7.84.66,7.98,0,.36-.29.64-.65.64h0c-.36,0-.64-.3-.64-.65,0-.03.03-3.39-.64-7.77-.25-1.64-.48-2.8-.66-3.73-.32-1.63-.51-2.61-.47-4.29.05-2.22.2-2.86.21-2.92.07-.27.3-.47.58-.49.11,0,.22.01.32.06.09,0,.22.01.38.02,1.27.05,4.25.16,5.44,2.43.96,1.81,1.33,6.94,1.63,11.06.13,1.83.25,3.41.38,4.04.41,1.95.17,7.04-.75,10.69-.07.29-.34.49-.63.49Zm-6.12-28.38h0s0,0,0,0Zm0,0h0s0,0,0,0Zm-.01-.03s0,.02.01.03c0,0,0-.02-.01-.03Zm0,0s0,0,0,0c0,0,0,0,0,0Z"/>
      </g>
    </g>
  </g>
</svg>